<svg width="390px" height="82px" viewBox="0 0 390 82" version="1.1" xmlns="http://www.w3.org/2000/svg" xmlns:xlink="http://www.w3.org/1999/xlink">
    <!-- Generator: Sketch 48.2 (47327) - http://www.bohemiancoding.com/sketch -->
    <desc>Created with Sketch.</desc>
    <defs></defs>
    <g id="Welcome" stroke="none" stroke-width="1" fill="none" fill-rule="evenodd">
        <g id="Desktop-HD" transform="translate(-112.000000, -55.000000)">
            <g id="Main-Nav" transform="translate(-9.000000, 0.000000)">
                <g id="PSU_BUS_RGB_REV_Black" transform="translate(121.000000, 55.000000)">
                    <path d="M37.005,82 C20.639,72.267 0,58.122 0,33.146 L0,6.773 C7.549,3.917 19.214,0.343 37.004,0.343 C54.999,0.343 67.349,4.234 74.009,6.773 L74.009,33.146 C74.009,58.333 52.571,72.848 37.005,82" id="Fill-1" fill="#FFFFFE"></path>
                    <path d="M23.383,69.516 C27.751,72.926 32.429,75.942 37.007,78.677 C37.049,74.561 36.916,72.136 39.702,69.222 C40.83,68.042 41.991,66.842 43.041,65.753 C43.831,64.934 44.472,64.324 44.846,64.324 C45.113,64.324 45.232,64.464 45.232,64.821 C45.232,65.189 45.395,66.538 46.232,68.153 C47.273,70.161 48.811,70.42 49.303,70.533 C61.229,61.556 71.203,49.805 71.203,33.087 C71.203,23.909 71.203,8.723 71.203,8.723 C68.263,7.723 56.179,3.089 37.004,3.089 C17.828,3.089 5.746,7.723 2.805,8.723 C2.805,8.723 2.805,23.909 2.805,33.087 C2.805,40.435 4.732,46.824 7.906,52.439 C8.222,49.054 10.511,47.45 10.511,44.124 C10.511,41.804 9.855,40.339 9.855,38.397 C9.855,34.884 14.596,27.659 17.056,24.715 C17.128,24.629 17.288,24.423 17.485,24.423 C17.662,24.423 17.795,24.545 17.903,24.711 C18.153,25.094 18.261,25.297 18.529,25.297 C18.799,25.297 18.903,25.146 18.903,24.907 C18.903,24.295 18.195,23.274 18.195,19.282 C18.195,16.491 18.844,15.899 20.58,14.2 C20.897,13.89 21.867,12.957 22.794,12.957 C23.824,12.957 24.334,13.567 24.969,14.212 C26.042,15.303 27.538,17.236 27.779,17.541 C27.847,17.627 27.909,17.706 28.055,17.706 C28.551,17.706 28.965,17.557 31.12,17.557 C35.034,17.557 40.934,18.172 43.966,19.164 C45.527,19.675 45.853,20.027 46.266,20.027 C46.469,20.027 46.486,19.895 46.486,19.789 C46.486,19.592 46.075,19.275 46.075,19.006 C46.075,18.827 46.22,18.696 46.363,18.619 C48.624,17.405 50.555,16.487 52.322,16.487 C53.35,16.487 53.858,17.377 54.291,18.258 C54.628,18.944 54.991,19.866 54.991,20.812 C54.991,23.207 54.076,24.667 53.347,25.69 C53.696,26.049 54.19,26.591 54.492,26.951 C55.028,27.592 55.673,28.429 55.673,29.298 C55.673,29.674 55.489,30.264 55.385,30.731 C55.338,30.941 55.154,31.361 54.789,31.354 C54.46,31.348 54.375,30.988 54.362,30.67 C54.36,30.604 54.362,30.461 54.362,30.429 C54.362,29.74 54.171,28.805 53.531,28.15 C52.795,27.397 52.121,26.85 51.268,26.85 C51.218,26.85 51.037,26.85 50.977,26.85 C49.577,26.85 48.941,27.462 48.557,27.836 C48.137,28.246 47.81,28.792 47.81,29.53 C47.81,29.952 48.098,30.453 48.481,31.219 C48.707,31.671 49.287,32.748 49.604,33.303 C49.88,33.786 50.235,33.956 50.632,33.956 C51.606,33.956 52.456,33.821 52.456,33.528 C52.456,33.448 52.412,33.38 52.279,33.38 C52.223,33.38 52.088,33.397 51.968,33.397 C50.695,33.397 50.014,31.777 49.376,30.307 C49.863,29.834 50.413,29.347 51.412,29.347 C52.68,29.347 53.512,30.199 53.512,31.306 C53.512,31.857 53.342,32.316 53.243,32.523 C53.193,32.627 53.165,32.691 53.165,32.751 C53.165,32.924 53.385,32.959 53.731,33.039 C53.854,33.068 54.09,33.123 54.233,33.165 C54.606,33.273 55.002,33.595 55.169,34.044 C55.281,34.343 55.535,35.029 55.591,35.195 C55.8,35.822 56.139,36.734 56.139,37.83 C56.139,38.943 56.063,39.28 55.757,40.411 C55.366,41.857 55.193,42.407 55.129,43.201 C55.264,43.45 55.275,43.519 55.336,43.664 C55.555,44.125 55.84,44.965 55.84,45.875 C55.84,46.118 55.84,46.597 55.84,46.624 C55.84,48.074 55.261,49.202 54.635,50.047 C54.147,50.705 53.449,51.632 53.049,52.146 C52.789,52.457 52.439,52.682 52.049,52.682 C51.863,52.682 51.643,52.619 51.424,52.564 C51.18,52.503 50.661,52.372 50.44,52.316 C49.588,52.101 49.273,51.544 48.997,50.794 C48.956,50.682 48.827,50.363 48.787,50.262 C48.584,49.739 48.469,49.405 48.145,49.405 C47.903,49.405 47.672,49.563 47.431,49.925 C46.579,51.206 46.116,51.672 44.618,52.04 C44.094,52.169 43.031,52.391 42.436,52.523 C41.539,52.722 39.936,53.143 39.033,53.143 C38.841,53.143 38.64,53.131 38.433,53.108 C37.203,52.935 36.329,52.854 34.796,51.024 C32.689,48.509 32.906,48.154 32.78,44.757 C32.765,44.378 32.641,43.905 32.247,43.905 C31.894,43.905 31.741,44.626 31.612,45.647 C31.461,46.845 31.184,48.09 30.595,48.09 C30.182,48.09 29.905,48.027 29.271,47.821 C28.505,47.571 26.596,46.926 25.593,46.595 C24.227,46.143 22.918,45.785 22.392,44.574 C22.144,44.004 21.686,42.945 21.454,42.394 C21.29,42.006 21.17,41.804 20.916,41.804 C20.552,41.804 20.471,42.235 20.431,42.576 C20.385,42.961 20.287,43.851 20.239,44.406 C20.034,46.773 19.561,47.779 18.559,49.099 C18.1,49.704 17.664,50.32 17.156,50.993 C16.107,52.385 15.474,53.809 15.508,56.505 C15.51,56.681 15.497,57.685 15.508,58.148 C15.601,62.161 16.619,64.127 23.383,69.516 Z M47.608,57.221 C47.29,57.299 46.668,57.453 43.897,57.453 C39.699,57.453 38.987,56.421 38.987,55.603 C38.987,54.236 45.007,53.273 47.38,53.273 C49.652,53.273 50.657,54.003 50.657,54.559 C50.657,55.204 49.632,56.732 47.608,57.221 Z M39.479,31.283 C39.479,30.316 38.39,28.899 36.493,28.899 C34.805,28.899 33.516,30.172 33.179,31.168 C33.583,31.95 33.973,32.776 35.591,33.267 C35.805,33.332 36.02,33.337 36.02,33.52 C36.02,33.779 35.746,33.909 35.17,33.909 C33.335,33.909 32.246,33.16 31.761,32.526 C31.287,32.592 30.738,32.777 30.052,32.802 C29.492,32.822 29.235,32.447 29.235,31.946 C29.235,31.623 29.331,31.268 29.523,30.874 C29.629,30.656 29.742,30.43 29.824,30.269 C30.109,29.712 30.544,28.47 32.219,27.516 C32.413,27.405 32.919,27.099 33.179,26.946 C34.126,26.389 34.843,26.258 35.97,26.258 C36.057,26.258 36.683,26.258 36.796,26.258 C38.147,26.258 38.838,26.637 39.434,27.138 C40.644,28.156 41.309,28.71 41.309,29.466 C41.309,30.305 41.265,30.948 40.594,31.833 C40.018,32.588 39.174,33.09 38.63,33.09 C38.476,33.09 38.431,33.007 38.431,32.921 C38.431,32.805 38.559,32.748 38.69,32.641 C39.136,32.28 39.338,31.639 39.479,31.283 Z M22.583,25.87 C23,25.87 23.316,25.594 23.945,24.899 C25.352,23.345 26.71,23.136 26.71,22.472 C26.71,22.176 26.52,21.886 26.322,21.577 C24.823,19.235 24.183,17.969 23.29,16.27 C22.967,15.654 22.545,15.233 22.224,15.233 C21.706,15.233 21.158,15.838 20.842,16.356 C20.395,17.088 19.948,17.912 19.948,18.661 C19.948,19.794 20.227,21.86 20.697,23.184 C21.206,24.614 21.943,25.87 22.583,25.87 Z M49.77,22.79 C49.702,22.752 49.463,22.665 49.463,22.427 C49.463,22.154 49.662,21.87 50.064,21.331 C50.99,20.088 52.264,18.565 52.73,18.565 C52.958,18.565 53.1,18.722 53.381,19.254 C53.548,19.571 53.692,20.099 53.692,20.601 C53.692,22.253 53.122,23.413 52.24,24.725 C51.8,24.302 50.982,23.484 49.77,22.79 Z M48.138,47.847 C48.138,47.287 48.598,46.418 48.598,45.641 C48.598,44.718 47.466,44.424 46.587,44.303 C44.737,44.046 44.12,44.13 44.12,43.722 C44.12,43.439 44.369,43.145 44.706,42.661 C45.203,41.946 46.388,41.675 47.019,41.589 C47.85,41.475 48.77,41.363 49.873,41.363 C51.108,41.363 52.158,41.548 52.641,41.632 C53.775,41.829 53.951,42.304 53.951,42.836 C53.951,42.949 53.951,43.234 53.951,43.368 C53.951,43.904 53.512,44.179 52.721,44.352 C52.523,44.395 52.245,44.445 52.112,44.473 C51.539,44.592 50.829,44.706 50.577,45.43 C50.036,46.985 49.096,48.204 48.4,48.173 C48.272,48.168 48.138,48.071 48.138,47.847 Z" id="Fill-2" fill="#1B1A19"></path>
                    <path d="M44.667,68.378 C44.764,67.316 45.232,65.544 45.232,64.821 C45.232,64.464 45.113,64.324 44.846,64.324 C44.472,64.324 43.831,64.934 43.041,65.753 C41.991,66.842 40.83,68.042 39.702,69.222 C36.916,72.136 37.049,74.561 37.007,78.677 C40.103,76.81 42.934,75.016 45.031,73.587 C44.72,71.872 44.46,70.642 44.667,68.378 Z M15.508,58.148 C15.497,57.685 15.51,56.681 15.508,56.505 C15.474,53.809 16.107,52.385 17.156,50.993 C17.664,50.32 18.1,49.704 18.559,49.099 C19.561,47.779 20.034,46.773 20.239,44.406 C20.287,43.851 20.385,42.961 20.431,42.576 C20.471,42.235 20.552,41.804 20.916,41.804 C21.17,41.804 21.29,42.006 21.454,42.394 C21.686,42.945 22.144,44.004 22.392,44.574 C22.918,45.785 24.227,46.143 25.593,46.595 C26.596,46.926 28.505,47.571 29.271,47.821 C29.905,48.027 30.182,48.09 30.595,48.09 C31.184,48.09 31.461,46.845 31.612,45.647 C31.741,44.626 31.894,43.905 32.247,43.905 C32.641,43.905 32.765,44.378 32.78,44.757 C32.906,48.154 32.689,48.509 34.796,51.024 C36.329,52.854 37.203,52.935 38.433,53.108 C37.976,52.972 37.389,52.443 37.389,51.331 C37.389,51.128 37.389,50.244 37.389,50.11 C37.389,49.499 37.462,48.878 37.764,48.175 C37.907,47.844 38.074,47.247 38.231,46.882 C38.499,46.259 38.371,46.101 38.371,45.662 C38.371,45.199 38.218,44.739 37.852,43.628 C37.664,43.057 37.409,42.226 37.164,41.544 C36.4,39.413 36.092,38.911 33.543,38.574 C32.725,38.465 29.15,37.958 28.402,37.852 C25.542,37.446 23.303,37.311 22.137,35.394 C20.745,33.106 20.885,30.316 19.547,30.316 C18.911,30.316 18.575,31.026 18.575,32.063 C18.575,33.151 18.986,34.913 18.986,37.978 C18.986,40.629 18.738,41.367 17.194,43.319 C16.793,43.825 16.254,44.57 15.909,45.003 C14.76,46.446 14.251,47.259 14.32,48.94 C14.501,53.292 15.19,56.489 15.508,58.148 Z M46.206,39.722 C46.319,40.001 46.412,40.319 46.412,40.557 C46.412,41.091 46.28,41.254 45.986,41.569 C45.81,41.726 45.615,41.891 45.436,42.058 C45.143,42.211 44.881,42.408 44.706,42.661 C44.369,43.145 44.12,43.439 44.12,43.722 C44.12,43.81 44.148,43.875 44.212,43.926 C43.804,43.623 43.64,43.156 43.64,42.739 C43.64,42.367 43.762,42.17 43.762,41.82 C43.762,41.523 43.678,41.232 43.628,41.064 C43.058,39.155 42.097,36.884 41.505,35.34 C40.901,33.766 40.427,32.903 39.745,32.903 C39.366,32.903 39.029,33.09 38.631,33.09 C39.175,33.09 40.018,32.588 40.594,31.833 C41.265,30.948 41.309,30.305 41.309,29.466 C41.309,29.11 41.162,28.799 40.879,28.463 C41.743,29.343 42.296,30.464 42.881,31.704 C44.163,34.422 45.274,37.399 46.206,39.722 Z M55.169,34.044 C55.281,34.343 55.535,35.029 55.591,35.195 C55.8,35.822 56.139,36.734 56.139,37.83 C56.139,38.943 56.063,39.28 55.757,40.411 C55.366,41.857 55.193,42.407 55.129,43.201 C55.02,42.976 52.963,39.425 52.805,39.137 C52.648,38.848 52.517,38.567 52.517,38.233 C52.517,37.871 52.672,37.653 53.111,37.377 C53.375,37.211 53.716,37.015 53.947,36.897 C55.006,36.354 55.26,35.684 55.261,34.966 C55.261,34.665 55.217,34.356 55.169,34.044 Z" id="Fill-3" fill="#9FA2A1"></path>
                    <path d="M381.223,61.711 C381.957,62.192 383.255,62.699 384.497,62.699 C386.304,62.699 387.152,61.796 387.152,60.667 C387.152,59.481 386.446,58.832 384.611,58.155 C382.154,57.278 380.997,55.923 380.997,54.285 C380.997,52.084 382.776,50.277 385.711,50.277 C387.095,50.277 388.309,50.671 389.072,51.123 L388.451,52.93 C387.914,52.591 386.926,52.14 385.656,52.14 C384.187,52.14 383.368,52.988 383.368,54.002 C383.368,55.133 384.187,55.64 385.966,56.319 C388.337,57.223 389.552,58.409 389.552,60.441 C389.552,62.842 387.688,64.535 384.442,64.535 C382.945,64.535 381.561,64.168 380.602,63.603 L381.223,61.711 Z M370.043,61.711 C370.777,62.192 372.076,62.699 373.318,62.699 C375.125,62.699 375.973,61.796 375.973,60.667 C375.973,59.481 375.266,58.832 373.431,58.155 C370.974,57.278 369.817,55.923 369.817,54.285 C369.817,52.084 371.595,50.277 374.533,50.277 C375.916,50.277 377.13,50.671 377.892,51.123 L377.271,52.93 C376.735,52.591 375.747,52.14 374.476,52.14 C373.007,52.14 372.188,52.988 372.188,54.002 C372.188,55.133 373.007,55.64 374.787,56.319 C377.158,57.223 378.372,58.409 378.372,60.441 C378.372,62.842 376.509,64.535 373.262,64.535 C371.766,64.535 370.381,64.168 369.422,63.603 L370.043,61.711 Z M364.906,56.092 C364.934,54.512 364.256,52.055 361.461,52.055 C358.947,52.055 357.847,54.37 357.649,56.092 L364.906,56.092 Z M357.621,57.872 C357.678,61.231 359.823,62.615 362.308,62.615 C364.087,62.615 365.159,62.305 366.091,61.909 L366.515,63.687 C365.639,64.083 364.142,64.535 361.968,64.535 C357.762,64.535 355.249,61.769 355.249,57.645 C355.249,53.524 357.678,50.277 361.658,50.277 C366.12,50.277 367.305,54.2 367.305,56.713 C367.305,57.223 367.249,57.617 367.22,57.872 L357.621,57.872 Z M340.567,54.285 C340.567,52.874 340.54,51.717 340.455,50.586 L342.657,50.586 L342.798,52.845 L342.855,52.845 C343.533,51.548 345.114,50.277 347.373,50.277 C349.264,50.277 352.201,51.405 352.201,56.092 L352.201,64.253 L349.716,64.253 L349.716,56.375 C349.716,54.174 348.897,52.338 346.554,52.338 C344.916,52.338 343.645,53.495 343.222,54.879 C343.109,55.189 343.052,55.614 343.052,56.036 L343.052,64.253 L340.567,64.253 L340.567,54.285 Z M333.961,64.252 L336.446,64.252 L336.446,50.586 L333.961,50.586 L333.961,64.252 Z M336.729,46.748 C336.756,47.593 336.135,48.272 335.147,48.272 C334.273,48.272 333.651,47.593 333.651,46.748 C333.651,45.871 334.301,45.194 335.204,45.194 C336.135,45.194 336.729,45.871 336.729,46.748 Z M322.444,61.711 C323.178,62.192 324.476,62.699 325.718,62.699 C327.525,62.699 328.373,61.796 328.373,60.667 C328.373,59.481 327.667,58.832 325.832,58.155 C323.375,57.278 322.218,55.923 322.218,54.285 C322.218,52.084 323.996,50.277 326.933,50.277 C328.316,50.277 329.53,50.671 330.293,51.123 L329.672,52.93 C329.135,52.591 328.147,52.14 326.877,52.14 C325.408,52.14 324.589,52.988 324.589,54.002 C324.589,55.133 325.408,55.64 327.187,56.319 C329.558,57.223 330.772,58.409 330.772,60.441 C330.772,62.842 328.909,64.535 325.663,64.535 C324.166,64.535 322.782,64.168 321.823,63.603 L322.444,61.711 Z M318.661,60.525 C318.661,61.938 318.69,63.18 318.775,64.253 L316.572,64.253 L316.431,62.023 L316.375,62.023 C315.725,63.122 314.285,64.564 311.857,64.564 C309.711,64.564 307.142,63.378 307.142,58.578 L307.142,50.586 L309.626,50.586 L309.626,58.155 C309.626,60.752 310.417,62.501 312.676,62.501 C314.342,62.501 315.499,61.344 315.951,60.242 C316.092,59.875 316.177,59.424 316.177,58.972 L316.177,50.586 L318.661,50.586 L318.661,60.525 Z M294.466,62.39 C294.945,62.474 295.652,62.501 296.527,62.501 C299.068,62.501 301.411,61.571 301.411,58.803 C301.411,56.206 299.181,55.133 296.498,55.133 L294.466,55.133 L294.466,62.39 Z M294.466,53.27 L296.696,53.27 C299.294,53.27 300.818,51.915 300.818,50.079 C300.818,47.849 299.124,46.972 296.64,46.972 C295.51,46.972 294.861,47.057 294.466,47.142 L294.466,53.27 Z M292.01,45.477 C293.082,45.25 294.776,45.081 296.498,45.081 C298.955,45.081 300.536,45.506 301.721,46.465 C302.711,47.199 303.304,48.328 303.304,49.825 C303.304,51.659 302.089,53.27 300.085,54.002 L300.085,54.06 C301.892,54.512 304.009,56.008 304.009,58.832 C304.009,60.469 303.359,61.711 302.4,62.644 C301.073,63.857 298.926,64.422 295.821,64.422 C294.127,64.422 292.828,64.308 292.01,64.197 L292.01,45.477 Z M277.95,64.253 L277.95,52.478 L276.029,52.478 L276.029,50.586 L277.95,50.586 L277.95,49.937 C277.95,48.018 278.372,46.267 279.531,45.165 C280.462,44.262 281.705,43.895 282.862,43.895 C283.738,43.895 284.5,44.093 284.98,44.291 L284.641,46.211 C284.274,46.042 283.766,45.9 283.06,45.9 C280.943,45.9 280.405,47.762 280.405,49.852 L280.405,50.586 L283.709,50.586 L283.709,52.478 L280.405,52.478 L280.405,64.253 L277.95,64.253 Z M263.72,57.447 C263.72,60.441 265.443,62.699 267.871,62.699 C270.242,62.699 272.021,60.469 272.021,57.392 C272.021,55.077 270.864,52.14 267.926,52.14 C264.991,52.14 263.72,54.85 263.72,57.447 Z M274.562,57.307 C274.562,62.361 271.061,64.564 267.757,64.564 C264.059,64.564 261.207,61.854 261.207,57.532 C261.207,52.959 264.2,50.277 267.983,50.277 C271.908,50.277 274.562,53.128 274.562,57.307 Z M252.114,56.093 C252.143,54.513 251.465,52.056 248.67,52.056 C246.157,52.056 245.056,54.37 244.858,56.093 L252.114,56.093 Z M244.83,57.873 C244.886,61.231 247.032,62.616 249.517,62.616 C251.296,62.616 252.369,62.306 253.3,61.91 L253.724,63.688 C252.848,64.084 251.352,64.536 249.179,64.536 C244.972,64.536 242.458,61.77 242.458,57.646 C242.458,53.525 244.886,50.278 248.867,50.278 C253.329,50.278 254.514,54.201 254.514,56.714 C254.514,57.223 254.459,57.617 254.43,57.873 L244.83,57.873 Z M236.87,55.982 C236.87,55.557 236.841,55.189 236.729,54.851 C236.277,53.411 235.063,52.225 233.256,52.225 C230.884,52.225 229.19,54.23 229.19,57.393 C229.19,60.074 230.545,62.306 233.227,62.306 C234.751,62.306 236.136,61.345 236.672,59.765 C236.813,59.34 236.87,58.861 236.87,58.436 L236.87,55.982 Z M239.439,50.587 C239.382,51.575 239.326,52.677 239.326,54.344 L239.326,62.277 C239.326,65.411 238.705,67.331 237.377,68.517 C236.051,69.759 234.13,70.155 232.408,70.155 C230.771,70.155 228.964,69.759 227.863,69.025 L228.484,67.133 C229.387,67.698 230.799,68.206 232.493,68.206 C235.034,68.206 236.898,66.879 236.898,63.435 L236.898,61.91 L236.841,61.91 C236.079,63.181 234.611,64.198 232.493,64.198 C229.105,64.198 226.676,61.316 226.676,57.533 C226.676,52.904 229.697,50.278 232.832,50.278 C235.203,50.278 236.503,51.52 237.096,52.648 L237.151,52.648 L237.265,50.587 L239.439,50.587 Z M222.189,56.093 C222.217,54.513 221.539,52.056 218.744,52.056 C216.23,52.056 215.13,54.37 214.932,56.093 L222.189,56.093 Z M214.904,57.873 C214.961,61.231 217.106,62.616 219.591,62.616 C221.37,62.616 222.443,62.306 223.374,61.91 L223.798,63.688 C222.922,64.084 221.426,64.536 219.251,64.536 C215.045,64.536 212.532,61.77 212.532,57.646 C212.532,53.525 214.961,50.278 218.941,50.278 C223.403,50.278 224.588,54.201 224.588,56.714 C224.588,57.223 224.532,57.617 224.503,57.873 L214.904,57.873 Z M206.857,64.254 L209.342,64.254 L209.342,44.207 L206.857,44.207 L206.857,64.254 Z M200.194,64.254 L202.679,64.254 L202.679,44.207 L200.194,44.207 L200.194,64.254 Z M186.219,57.448 C186.219,60.441 187.942,62.7 190.37,62.7 C192.741,62.7 194.52,60.47 194.52,57.393 C194.52,55.078 193.363,52.141 190.426,52.141 C187.49,52.141 186.219,54.851 186.219,57.448 Z M197.062,57.308 C197.062,62.362 193.56,64.565 190.256,64.565 C186.558,64.565 183.706,61.854 183.706,57.533 C183.706,52.96 186.699,50.278 190.482,50.278 C194.407,50.278 197.062,53.129 197.062,57.308 Z M182.013,63.633 C181.11,64.084 179.303,64.536 176.987,64.536 C171.623,64.536 167.586,61.147 167.586,54.907 C167.586,48.949 171.623,44.912 177.525,44.912 C179.896,44.912 181.392,45.42 182.042,45.76 L181.449,47.763 C180.517,47.314 179.19,46.973 177.609,46.973 C173.147,46.973 170.183,49.826 170.183,54.822 C170.183,59.482 172.866,62.475 177.496,62.475 C178.992,62.475 180.517,62.164 181.505,61.683 L182.013,63.633 Z M155.982,64.254 L158.466,64.254 L158.466,44.207 L155.982,44.207 L155.982,64.254 Z M149.573,57.279 C146.863,57.223 143.785,57.702 143.785,60.357 C143.785,61.966 144.858,62.729 146.129,62.729 C147.908,62.729 149.037,61.599 149.432,60.441 C149.517,60.188 149.573,59.905 149.573,59.651 L149.573,57.279 Z M149.941,64.253 L149.743,62.531 L149.658,62.531 C148.896,63.604 147.428,64.565 145.48,64.565 C142.712,64.565 141.301,62.616 141.301,60.639 C141.301,57.337 144.237,55.53 149.517,55.557 L149.517,55.274 C149.517,54.146 149.206,52.112 146.411,52.112 C145.14,52.112 143.814,52.508 142.854,53.129 L142.289,51.491 C143.418,50.756 145.056,50.278 146.778,50.278 C150.957,50.278 151.974,53.129 151.974,55.868 L151.974,60.978 C151.974,62.164 152.03,63.321 152.199,64.253 L149.941,64.253 Z M136.897,56.093 C136.925,54.513 136.248,52.056 133.452,52.056 C130.939,52.056 129.838,54.37 129.64,56.093 L136.897,56.093 Z M129.613,57.873 C129.669,61.231 131.815,62.616 134.299,62.616 C136.078,62.616 137.151,62.306 138.083,61.91 L138.506,63.688 C137.631,64.084 136.134,64.536 133.96,64.536 C129.754,64.536 127.24,61.77 127.24,57.646 C127.24,53.525 129.669,50.278 133.65,50.278 C138.111,50.278 139.296,54.201 139.296,56.714 C139.296,57.223 139.241,57.617 139.212,57.873 L129.613,57.873 Z M104.682,54.286 C104.682,52.875 104.655,51.718 104.57,50.587 L106.744,50.587 L106.857,52.79 L106.941,52.79 C107.704,51.491 108.974,50.278 111.233,50.278 C113.097,50.278 114.509,51.406 115.102,53.015 L115.157,53.015 C115.581,52.254 116.118,51.66 116.683,51.237 C117.502,50.616 118.405,50.278 119.704,50.278 C121.511,50.278 124.193,51.464 124.193,56.206 L124.193,64.253 L121.765,64.253 L121.765,56.518 C121.765,53.892 120.805,52.31 118.8,52.31 C117.388,52.31 116.288,53.356 115.864,54.569 C115.75,54.907 115.666,55.359 115.666,55.81 L115.666,64.253 L113.238,64.253 L113.238,56.066 C113.238,53.892 112.278,52.31 110.386,52.31 C108.833,52.31 107.704,53.552 107.308,54.795 C107.167,55.163 107.111,55.585 107.111,56.008 L107.111,64.253 L104.682,64.253 L104.682,54.286 Z M90.51,61.26 C91.611,61.939 93.22,62.502 94.915,62.502 C97.427,62.502 98.895,61.176 98.895,59.255 C98.895,57.477 97.879,56.46 95.31,55.472 C92.204,54.37 90.284,52.761 90.284,50.08 C90.284,47.116 92.741,44.912 96.439,44.912 C98.388,44.912 99.799,45.364 100.646,45.845 L99.969,47.85 C99.347,47.51 98.077,46.946 96.355,46.946 C93.757,46.946 92.769,48.498 92.769,49.797 C92.769,51.575 93.926,52.452 96.552,53.467 C99.771,54.711 101.409,56.262 101.409,59.059 C101.409,61.995 99.235,64.536 94.745,64.536 C92.91,64.536 90.905,64 89.889,63.321 L90.51,61.26 Z M166.31,32.58 L174.846,32.58 L174.846,29.406 L172.77,29.406 L172.77,21.464 C172.77,17.189 170.091,14.427 165.946,14.427 C162.506,14.427 160.755,16.381 160.263,17.218 L160.15,17.21 L160.018,14.842 L153.718,14.842 L153.718,18.016 L156.071,18.016 L156.071,29.406 L154.098,29.406 L154.098,32.58 L162.634,32.58 L162.634,29.406 L160.559,29.406 L160.559,22.299 C160.559,19.709 161.961,18.224 164.407,18.224 C166.869,18.224 168.282,19.709 168.282,22.299 L168.282,29.406 L166.31,29.406 L166.31,32.58 Z M100.642,20.066 L97.305,20.066 L97.305,11.894 L100.573,11.894 C103.3,11.894 104.993,13.46 104.993,15.981 C104.993,18.501 103.326,20.066 100.642,20.066 Z M115.854,21.657 C116.061,18.975 117.502,17.393 119.748,17.393 C122.155,17.393 123.592,18.921 123.592,21.48 L123.592,21.657 L115.854,21.657 Z M246.834,21.656 C246.996,19.078 248.486,17.393 250.731,17.393 C253.138,17.393 254.576,18.921 254.576,21.48 L254.576,21.656 L246.834,21.656 Z M218.174,29.821 C216.077,29.821 215.333,28.552 215.333,27.465 C215.333,25.667 216.938,24.9 220.699,24.9 L222.225,24.9 L222.225,25.078 C222.225,28.337 220.125,29.821 218.174,29.821 Z M90.223,32.58 L99.692,32.58 L99.692,29.406 L97.305,29.406 L97.305,23.24 L101.163,23.24 C106.624,23.24 109.884,20.526 109.884,15.981 C109.884,11.434 106.624,8.719 101.163,8.719 L90.223,8.719 L90.223,11.894 L92.61,11.894 L92.61,29.406 L90.223,29.406 L90.223,32.58 Z M143.155,32.58 L151.691,32.58 L151.691,29.406 L149.615,29.406 L149.615,21.464 C149.615,17.189 146.937,14.427 142.791,14.427 C139.352,14.427 137.6,16.381 137.108,17.218 L136.996,17.21 L136.863,14.842 L130.563,14.842 L130.563,18.016 L132.916,18.016 L132.916,29.406 L130.943,29.406 L130.943,32.58 L139.48,32.58 L139.48,29.406 L137.404,29.406 L137.404,22.299 C137.404,19.709 138.807,18.224 141.252,18.224 C143.715,18.224 145.127,19.709 145.127,22.299 L145.127,29.406 L143.155,29.406 L143.155,32.58 Z M115.894,24.623 L128.495,24.623 C128.439,18.14 125.321,14.427 119.921,14.427 C114.502,14.427 111,18.105 111,23.798 C111,25.955 111.704,32.995 120.751,32.995 C124.455,32.995 126.454,32.23 127.251,31.911 L127.251,28.556 C126.347,28.925 124.568,29.613 121.823,29.613 C118.315,29.613 116.037,27.587 115.894,24.623 Z M182.258,28.68 L182.258,25.601 L178.036,25.601 L178.036,31.696 C180.66,32.594 183.156,32.995 186.107,32.995 C192.117,32.995 195.427,30.325 195.427,25.477 C195.427,20.567 191.814,19.195 188.428,18.296 L186.025,17.666 C184.065,17.173 183.071,16.119 183.071,14.534 C183.071,13.013 184.345,11.478 187.192,11.478 C188.43,11.478 189.698,11.886 190.225,12.093 L190.225,15.007 L194.441,15.007 L194.441,9.528 C192.481,8.761 189.734,8.305 187.06,8.305 C181.325,8.305 178.167,10.689 178.167,15.018 C178.167,18.883 179.967,20.946 184.378,22.139 L186.447,22.709 C189.342,23.487 190.524,24.534 190.524,26.324 C190.524,28.311 189.107,29.406 186.534,29.406 C185.174,29.406 183.127,28.941 182.258,28.68 Z M197.324,18.016 L199.78,18.016 L199.78,28.074 C199.78,31.109 201.961,32.995 205.473,32.995 C207.196,32.995 208.824,32.587 209.28,32.462 L209.28,29.376 C208.82,29.464 207.965,29.613 207.301,29.613 C205.118,29.613 204.268,28.671 204.268,26.253 L204.268,18.016 L209.111,18.016 L209.111,14.842 L204.268,14.842 L204.268,10.968 L199.78,10.968 L199.78,14.842 L197.324,14.842 L197.324,18.016 Z M215.505,18.173 C215.658,18.119 217.154,17.601 218.459,17.601 C221.111,17.601 222.294,18.723 222.294,21.237 L222.294,22.282 L219.944,22.282 C213.991,22.282 210.844,24.229 210.844,27.914 C210.844,31 213.151,32.995 216.721,32.995 C220.445,32.995 222.136,30.832 222.589,30.118 L222.719,30.117 L222.861,32.58 L228.374,32.58 L228.374,29.406 L226.504,29.406 L226.504,21.369 C226.504,16.763 223.777,14.427 218.398,14.427 C215.18,14.427 212.32,15.888 211.709,16.222 L211.709,20.541 L215.505,20.541 L215.505,18.173 Z M229.048,18.016 L231.503,18.016 L231.503,28.074 C231.503,31.109 233.685,32.995 237.196,32.995 C238.92,32.995 240.547,32.587 241.003,32.462 L241.003,29.375 C240.172,29.533 239.507,29.613 239.024,29.613 C236.842,29.613 235.992,28.671 235.992,26.253 L235.992,18.016 L240.835,18.016 L240.835,14.842 L235.992,14.842 L235.992,10.968 L231.503,10.968 L231.503,14.842 L229.048,14.842 L229.048,18.016 Z M246.88,24.623 L259.478,24.623 C259.423,18.14 256.305,14.427 250.904,14.427 C245.485,14.427 241.984,18.105 241.984,23.798 C241.984,25.955 242.687,32.995 251.735,32.995 C255.438,32.995 257.437,32.23 258.234,31.911 L258.234,28.556 C257.33,28.925 255.552,29.613 252.807,29.613 C249.298,29.613 247.023,27.586 246.88,24.623 Z" id="Fill-4" fill="#FFFFFE"></path>
                </g>
            </g>
        </g>
    </g>
</svg>